<svg xmlns="http://www.w3.org/2000/svg" width="220" height="30" viewBox="0 0 220 30">
    <g fill="#FFF" fill-rule="evenodd">
        <path d="M33.584 1.014c-5.956 0-10.783 4.842-10.786 10.816.002 5.973 4.83 10.817 10.786 10.817 5.958-.001 10.784-4.844 10.785-10.817 0-5.974-4.827-10.815-10.785-10.816M66.834 20.513L56.256 2.136a1.008 1.008 0 0 0-.872-.504c-.36 0-.69.193-.87.504l-10.58 18.38a.98.98 0 0 0-.134.504 1.005 1.005 0 0 0 1.005 1.008h21.16c.359 0 .692-.192.87-.506a1.006 1.006 0 0 0 0-1.009M20.042 1.927a1.007 1.007 0 0 0-.709-.295H1.007A1.008 1.008 0 0 0 0 2.64v8.183a1.005 1.005 0 0 0 1.007 1.007h4.078v9.189a1.006 1.006 0 0 0 1.007 1.01h8.155a1.01 1.01 0 0 0 1.007-1.01v-9.19h3.82c.526 0 .778-.103.97-.295.19-.19.293-.445.293-.711V2.64c0-.266-.103-.521-.295-.713M110.031 1.927a1 1 0 0 0-.708-.295H90.995A1.008 1.008 0 0 0 89.99 2.64v8.182a1.009 1.009 0 0 0 1.006 1.008h4.079v9.19a1.007 1.007 0 0 0 1.007 1.009h8.157a1.005 1.005 0 0 0 1.005-1.01v-9.19h3.822c.524 0 .778-.104.969-.295.19-.19.293-.445.294-.712V2.64c-.001-.266-.104-.521-.297-.713M84.156 7.94l2.758-4.795a.984.984 0 0 0 .136-.504.983.983 0 0 0-.136-.504 1.002 1.002 0 0 0-.87-.504H75.188c-4.12 0-7.464 3.34-7.483 7.47a7.507 7.507 0 0 0 3.9 6.59l-2.774 4.821a1.007 1.007 0 0 0 .87 1.515h10.856c4.134-.002 7.483-3.361 7.484-7.508a7.507 7.507 0 0 0-3.885-6.581M120.607 19.015h4.411c1.985 0 3.529-.663 4.631-2.018 1.13-1.354 1.682-3.096 1.682-5.197 0-2.073-.552-3.76-1.682-5.115-1.102-1.355-2.646-2.017-4.604-2.017h-4.438v14.347zm-3.17 3.042V1.626h7.691c2.95 0 5.266.913 6.948 2.766 1.708 1.851 2.563 4.34 2.563 7.491 0 3.125-.883 5.613-2.619 7.437-1.737 1.825-4.108 2.737-7.14 2.737h-7.444zM147.739 11.082c-.91-.996-2.04-1.493-3.391-1.493s-2.481.497-3.419 1.493c-.91.967-1.379 2.156-1.379 3.51 0 1.383.47 2.57 1.379 3.54.938.966 2.068 1.464 3.419 1.464 1.35 0 2.48-.498 3.391-1.465.936-.968 1.406-2.156 1.406-3.539 0-1.354-.47-2.543-1.406-3.51m-9.042-2.019c1.489-1.52 3.363-2.295 5.65-2.295 2.29 0 4.163.775 5.625 2.295 1.49 1.522 2.232 3.346 2.232 5.53 0 2.211-.743 4.063-2.232 5.585-1.462 1.52-3.336 2.266-5.624 2.266s-4.162-.746-5.65-2.266c-1.462-1.522-2.207-3.374-2.207-5.586 0-2.183.745-4.007 2.206-5.529M165.056 11.082c-.91-.996-2.04-1.493-3.391-1.493-1.352 0-2.48.497-3.419 1.493-.91.967-1.378 2.156-1.378 3.51 0 1.383.468 2.57 1.378 3.54.938.966 2.067 1.464 3.419 1.464 1.35 0 2.481-.498 3.391-1.465.936-.968 1.406-2.156 1.406-3.539 0-1.354-.47-2.543-1.406-3.51m-9.042-2.019c1.488-1.52 3.362-2.295 5.65-2.295 2.29 0 4.163.775 5.625 2.295 1.49 1.522 2.233 3.346 2.233 5.53 0 2.211-.744 4.063-2.233 5.585-1.462 1.52-3.336 2.266-5.624 2.266-2.289 0-4.163-.746-5.65-2.266-1.462-1.522-2.207-3.374-2.207-5.586 0-2.183.745-4.007 2.206-5.529M172.007 22.057v-14.9h2.894v2.126c.883-1.685 2.288-2.515 4.218-2.515.634 0 1.214.083 1.765.25l-.276 2.957a4.694 4.694 0 0 0-1.627-.275c-2.314 0-3.94 1.603-3.94 4.726v7.63h-3.034zM192.216 18.16c.91-.968 1.352-2.158 1.352-3.568 0-1.382-.441-2.572-1.352-3.539-.909-.967-2.04-1.464-3.445-1.464-1.407 0-2.564.497-3.446 1.464-.883.967-1.323 2.157-1.323 3.568 0 1.409.44 2.598 1.323 3.565.882.968 2.04 1.438 3.446 1.438 1.406 0 2.536-.498 3.445-1.465zm1.214-11.004h2.922v14.9h-2.922v-2.044c-1.35 1.603-3.06 2.405-5.073 2.405-2.122 0-3.915-.747-5.32-2.267-1.407-1.52-2.095-3.401-2.095-5.641 0-2.238.688-4.063 2.095-5.528 1.405-1.466 3.198-2.185 5.32-2.185 2.012 0 3.722.802 5.073 2.433V7.156zM209.754 7.156h3.336l-6.148 16.256c-1.322 3.511-3.005 4.977-5.54 4.977-1.048 0-1.903-.222-2.536-.636l.44-2.627c.689.304 1.324.47 1.847.47 1.213 0 2.178-.857 2.922-2.543l.469-1.107-6.45-14.79h3.5l4.356 10.755 3.804-10.755zM215.575 16.86l-.138-15.4h3.28l-.165 15.4h-2.977zm-.414 3.593c0-1.078.854-1.88 1.957-1.88 1.075 0 1.875.802 1.875 1.88 0 1.106-.8 1.935-1.875 1.935-1.103 0-1.957-.829-1.957-1.935z"/>
    </g>
</svg>
